<svg id="Layer_1" data-name="Layer 1" xmlns="http://www.w3.org/2000/svg" viewBox="0 0 511.11 408.75"><defs><style>.cls-1{fill:#010201;}</style></defs><title>email</title><path class="cls-1" d="M625.55,231.23c.57-45.33-18.33-66.56-64.41-65.65-61.59,1.21-123.21.3-184.82.3-65.86,0-131.74.91-197.57-.32-46.15-.86-64.88,20.34-64.28,65.68,1.24,93.46.91,187,.13,280.42-.35,42.2,18.18,62.75,60.9,62.62q194.4-.57,388.78,0c42.73.13,61.37-20.66,61.1-62.64C624.77,418.18,624.36,324.69,625.55,231.23ZM568.39,268.1c-61.9,40.46-125,79.08-187.6,118.45-8.38,5.27-16,3.47-23.49-1.24-60.9-38.09-122-75.82-182.47-114.63-15.43-9.9-8.78-26.34-5.69-49.08,57.27,35.15,112.93,66.48,165.27,102.62,27.18,18.76,46.26,17.45,72.6-.46,52.19-35.47,107-67.12,164.22-102.54C574.26,244.75,579.74,260.69,568.39,268.1Z" transform="translate(-114.45 -165.54)"/></svg>